<svg width="160" height="41" viewBox="0 0 160 41" fill="none" xmlns="http://www.w3.org/2000/svg">
<path d="M7.69231 0L160 1.48193V41H0L7.69231 0Z" fill="#F5E401"/>
<path d="M20.7222 27.528C17.0262 27.528 15.9222 25.032 16.3782 21C16.3782 21 17.4102 21.096 19.6182 21.216C19.3782 23.76 19.7622 24.816 20.6262 24.816C21.2742 24.816 21.7542 24.288 21.7542 22.608C21.7542 21.432 21.4662 20.688 21.0342 20.352C20.6262 20.016 20.0262 19.896 18.8982 19.968C18.8982 19.968 18.8982 19.128 18.8022 17.424C19.9062 17.472 20.6262 17.352 21.0102 17.04C21.4182 16.728 21.6822 15.984 21.6822 14.952C21.6822 13.392 21.3702 12.6 20.6982 12.6C19.7862 12.6 19.4982 13.848 19.6902 16.224C17.7942 16.344 16.4502 16.416 16.4502 16.416C15.9942 11.808 17.6262 9.912 20.9862 9.912C23.6742 9.912 24.9942 12.096 24.9942 14.616C24.9942 16.512 24.2742 17.856 22.9782 18.48C24.2982 19.032 25.2102 20.52 25.2102 22.632C25.2102 25.896 23.2182 27.528 20.7222 27.528ZM29.5709 27.36C29.2349 21.144 30.4349 16.2 32.4989 13.536C29.7149 13.56 27.8669 13.608 27.8669 13.608C27.9389 11.712 27.9389 10.368 27.9389 10.368C34.4429 10.296 35.5949 10.224 35.5949 10.224C35.5709 12.936 35.6429 13.872 35.6429 13.872C33.3389 17.28 32.6669 21.552 32.9549 27.456C30.5549 27.36 29.5709 27.36 29.5709 27.36ZM41.7781 18.648C39.4021 18.648 38.6341 16.848 38.6341 13.944C38.6341 11.424 39.6901 9.84 41.8261 9.84C43.9861 9.84 44.9701 11.448 44.9701 14.304C44.9701 17.592 43.6741 18.648 41.7781 18.648ZM41.8021 17.064C42.3301 17.064 42.5941 16.536 42.5941 14.232C42.5941 12.216 42.3781 11.496 41.8021 11.496C41.2261 11.496 40.9861 12.336 40.9861 14.16C40.9861 16.416 41.2261 17.064 41.8021 17.064ZM41.7781 27.168C40.8661 27.024 40.1701 27 40.1701 27C45.6661 16.128 48.3541 10.296 48.3541 10.296C49.3621 10.416 50.0101 10.392 50.0101 10.392C42.6181 25.08 41.7781 27.168 41.7781 27.168ZM48.5221 27.312C46.1461 27.312 45.3541 25.584 45.3541 22.728C45.3541 20.28 46.3861 18.528 48.5701 18.528C50.8501 18.528 51.7381 20.28 51.7381 22.92C51.7381 26.184 50.4661 27.312 48.5221 27.312ZM48.5461 25.752C49.0981 25.752 49.3381 25.176 49.3381 22.992C49.3381 20.904 49.1221 20.16 48.5461 20.16C47.9941 20.16 47.7541 20.88 47.7541 22.824C47.7541 25.128 47.9941 25.752 48.5461 25.752ZM64.8053 24.648C66.0293 24.744 66.7493 24.168 66.7493 18.816C66.7493 14.328 66.1253 12.72 64.6613 12.936C64.6853 18.72 64.8053 24.648 64.8053 24.648ZM61.4453 27.096C61.4933 18.552 61.4453 10.368 61.4453 10.368C62.3573 10.2 63.1733 10.128 63.9173 10.128C68.5493 10.128 70.2533 12.936 70.2533 19.032C70.2533 25.152 68.1413 27.312 63.9893 27.312C63.2213 27.312 62.3573 27.24 61.4453 27.096ZM73.8342 26.928C73.8342 26.928 73.7862 20.016 73.6422 10.344C73.6422 10.344 75.5862 10.32 80.4342 10.248C80.4342 10.248 80.4102 11.568 80.4582 13.44C80.4582 13.44 78.4902 13.464 76.8822 13.512C76.8822 13.512 76.8582 14.976 76.9062 17.4C77.0982 17.4 78.1542 17.424 79.9782 17.376C79.9782 17.376 79.9782 18.648 80.0022 20.424C80.0022 20.424 78.6822 20.4 76.9542 20.4C76.9782 21.48 77.0022 22.656 77.0502 23.904C77.0502 23.904 78.4422 24 80.5302 24.048C80.5302 24.048 80.4822 25.08 80.4822 27.072C80.4822 27.072 77.4342 26.976 73.8342 26.928ZM90.6108 26.928C90.6108 26.928 90.5868 19.152 90.4188 10.368C91.6668 10.128 92.7948 10.008 93.7548 10.008C97.3548 10.008 98.8908 11.592 98.8908 14.64C98.8908 16.44 97.9788 17.712 96.6348 18.24C98.2428 18.84 99.2028 20.256 99.2028 22.368C99.2028 25.8 96.9468 27.12 93.1308 27.12C92.3628 27.12 91.5228 27.048 90.6108 26.928ZM93.8028 24.648C95.1468 24.72 95.9628 24.168 95.9628 22.296C95.9628 20.616 95.2428 19.728 93.7308 19.728L93.8028 24.648ZM93.7068 12.576V17.304C95.1468 17.352 95.8428 16.56 95.8428 14.952C95.8428 13.296 95.2188 12.456 93.7068 12.576ZM104.641 9.6C104.641 9.6 104.233 9.192 103.201 8.376C103.201 8.376 103.969 7.512 105.481 5.664C105.481 5.664 106.009 5.664 107.569 5.496C107.569 5.496 108.241 6.336 110.065 8.136C110.065 8.136 109.561 8.592 108.649 9.576C108.649 9.576 108.001 8.784 106.561 7.464C106.561 7.464 105.913 8.136 104.641 9.6ZM106.633 27.384C103.177 27.384 102.025 24.432 102.001 18.672C102.001 13.848 102.913 10.008 106.633 10.008C110.401 10.008 111.289 13.536 111.289 18.648C111.241 25.296 109.753 27.384 106.633 27.384ZM106.681 24.84C107.401 24.84 107.737 23.76 107.737 18.528C107.737 13.944 107.401 12.624 106.633 12.624C105.793 12.624 105.553 14.184 105.553 18.504C105.553 23.592 105.841 24.84 106.681 24.84ZM114.744 26.616C114.744 26.616 114.816 20.616 114.672 10.872C114.672 10.872 115.944 10.776 117.864 10.728C117.864 10.728 119.112 15.264 120.912 20.976C120.84 18.6 120.696 14.664 120.384 9.912C120.384 9.912 121.512 9.984 123.36 9.96C123.36 9.96 123.456 16.416 123.696 27.12C123.696 27.12 122.712 27.264 120.648 27.408C120.648 27.408 119.448 23.496 117.504 17.208C117.528 19.368 117.624 22.8 117.84 26.664C117.84 26.664 116.544 26.616 114.744 26.616ZM131.539 27.336C128.179 27.336 127.027 24.312 127.027 18.12C127.027 15.504 127.195 12.936 127.531 10.56C127.531 10.56 128.467 10.728 130.675 10.992C130.387 13.68 130.243 15.6 130.243 17.376C130.243 22.632 130.819 24.144 131.515 24.144C132.211 24.144 132.619 23.4 132.619 18.576C132.619 16.008 132.379 13.008 131.995 10.152C131.995 10.152 133.243 10.128 135.283 9.888C135.715 12.672 136.027 15.744 136.027 18.432C136.027 24.696 134.779 27.336 131.539 27.336ZM143.379 27.36C139.971 27.36 138.699 25.224 139.083 21.024C139.083 21.024 140.403 21.072 142.443 21.096C142.227 23.616 142.563 24.744 143.403 24.744C144.003 24.744 144.315 24.288 144.315 22.896C144.315 21.792 143.907 21 141.915 19.584C139.755 18.048 139.011 16.512 139.011 14.352C139.011 11.256 140.811 9.984 143.403 9.984C146.571 9.984 147.915 12.144 147.483 16.2C147.483 16.2 145.875 16.056 144.219 16.008C144.507 13.536 144.075 12.6 143.355 12.6C142.707 12.6 142.419 13.32 142.419 14.52C142.419 15.696 142.947 16.512 144.771 17.736C146.979 19.224 147.747 20.544 147.747 22.824C147.747 26.16 145.947 27.36 143.379 27.36Z" fill="#090D15"/>
</svg>
