<svg width="163" height="30" viewBox="0 0 163 30" fill="none" xmlns="http://www.w3.org/2000/svg">
<g clip-path="url(#clip0_924_16)">
<path d="M14.176 27H17.85C21.226 27 24 24.226 24 20.85V9.15C24 5.775 21.226 3 17.85 3H14.1C14.026 3 13.95 3.074 13.95 3.15V26.85C13.949 26.926 14.025 27 14.176 27ZM18.75 13.801C20.101 13.801 21.149 14.926 21.149 16.199C21.149 17.551 20.024 18.599 18.75 18.599C17.4 18.599 16.35 17.55 16.35 16.199C16.275 14.85 17.4 13.801 18.75 13.801ZM11.4 3H6.15C2.775 3 0 5.775 0 9.15V20.85C0 24.226 2.775 27 6.15 27H11.4C11.474 27 11.55 26.926 11.55 26.851V3.15C11.551 3.074 11.475 3 11.4 3ZM9.676 25.051H6.15C3.824 25.051 1.949 23.176 1.949 20.85V9.15C1.949 6.824 3.824 4.949 6.15 4.949H9.6L9.676 25.051ZM3.75 10.199C3.75 11.474 4.725 12.449 6 12.449C7.275 12.449 8.25 11.474 8.25 10.199C8.25 8.926 7.275 7.949 6 7.949C4.725 7.949 3.75 8.926 3.75 10.199Z" fill="#F9FAFB"/>
<path d="M44.9054 2.54813C44.985 2.47462 45.0682 2.40462 45.1586 2.34162C47.5894 0.815541 50.3928 0 53.5036 0C56.4119 0 59.1393 0.780539 61.4616 2.13161C61.6316 2.22611 62.0946 2.53413 62.3297 2.81064C60.0834 0.416521 53.4855 5.55828 53.4855 5.55828C51.2067 3.85369 49.105 2.69513 47.546 2.27861C46.2365 1.9321 45.3358 2.22261 44.9054 2.54813ZM64.8691 4.80924C64.8039 4.73574 64.728 4.66923 64.6593 4.59223C64.095 3.9902 63.3968 3.84669 62.7674 3.88169C62.1923 4.0602 59.5481 4.98075 56.2889 7.9594C56.2889 7.9594 59.9568 11.4106 62.2068 14.9422C64.4531 18.4704 65.7951 21.2461 64.9703 25.0928C67.5675 22.3311 69.0072 18.7329 69 14.9983C69 11.0676 67.4373 7.48337 64.8691 4.80924ZM59.2695 16.4473C57.8407 14.9002 56.3613 13.3952 54.8384 11.9356C54.4116 11.5261 53.9594 11.0956 53.4819 10.651C53.4819 10.651 52.7657 11.3441 51.8397 12.2541V12.2506C50.6496 13.4162 49.105 14.9317 48.2477 15.8208C46.7212 17.3959 42.348 22.3416 42.1056 25.1173C42.1056 25.1173 41.1326 22.9191 43.2668 17.8439C44.6594 14.5222 48.8735 9.54498 50.6315 7.9209C50.6315 7.9209 49.0218 6.21281 47.007 5.02975L46.9925 5.02625C46.9925 5.02625 46.9672 5.00875 46.9383 4.99125C45.9689 4.43122 44.9054 3.9972 43.8889 3.9377C42.8508 4.0112 42.1888 4.74974 42.1888 4.74974C39.494 7.51838 37.9928 11.1901 38 15.0018C38 23.2867 44.9379 30 53.5036 30C58.0469 30 62.1308 28.1064 64.9703 25.0893C64.9703 25.0858 64.6448 23.1082 62.5612 20.2695C62.0657 19.608 60.2788 17.5359 59.2695 16.4473Z" fill="#F9FAFB"/>
<path d="M83.7286 21.1839C82.3794 22.0548 82.8291 23.7097 85.7075 24.4935C88.6757 25.4516 91.9138 25.7129 95.062 25.1903C95.2419 25.1903 95.4218 25.1032 95.5117 25.1032V22.1419L92.4535 23.1C91.2842 23.4484 90.1149 23.5355 88.9456 23.2742C88.0461 23.0129 88.226 22.4903 89.3054 22.0548L95.5117 19.9645V16.7419L86.8768 19.6161C85.7974 19.9645 84.718 20.4871 83.7286 21.1839ZM104.596 8.11936V16.5677C108.284 18.3097 111.163 16.5677 111.163 12.0387C111.163 7.42258 109.454 5.33226 104.506 3.67742C101.898 2.80645 99.1996 2.02258 96.5012 1.5V26.671L102.797 28.5V7.33548C102.797 6.37742 102.797 5.68065 103.517 5.94194C104.506 6.20323 104.596 7.16129 104.596 8.11936ZM116.29 19.1806C113.681 18.3097 110.893 17.9613 108.194 18.2226C106.755 18.3097 105.406 18.6581 104.147 19.0935L103.877 19.1806V22.5774L109.723 20.4871C110.893 20.1387 112.062 20.0516 113.231 20.3129C114.131 20.5742 113.951 21.0968 112.872 21.5323L103.877 24.7548V28.0645L116.29 23.6226C117.189 23.2742 117.999 22.8387 118.718 22.1419C119.348 21.271 119.078 20.0516 116.29 19.1806Z" fill="#F9FAFB"/>
<path d="M137.563 28.0595V27.1179L139.139 27.0824C142.171 27.0141 143.311 26.6929 143.793 25.7716C143.941 25.4887 143.952 25.4202 143.944 24.7846C143.939 24.3369 143.898 23.9483 143.825 23.6563L143.714 23.2109L139.005 23.1811L134.295 23.1512L133.995 23.014C133.643 22.8533 133.33 22.5464 133.138 22.1714L133 21.9041V12.0756V2.24713L133.133 1.99638C133.341 1.60311 133.598 1.34533 133.961 1.16568L134.295 1H147.898H161.5L161.882 1.18357C162.337 1.40173 162.668 1.72129 162.86 2.12834L163 2.42527V12.0942V21.7632L162.84 22.0923C162.654 22.4767 162.335 22.777 161.881 22.9953L161.557 23.1512L156.718 23.1681L151.878 23.1849L151.79 23.4948C151.528 24.4206 151.446 25.3325 151.585 25.7987C151.86 26.7238 153.179 27.0969 156.184 27.0996H157.229V28.0498V29H147.396H137.562V28.0584L137.563 28.0595ZM160.705 12.0758V3.34595H148.015H135.326V12.0758V20.8057H148.015H160.705V12.0758Z" fill="#F9FAFB"/>
</g>
<defs>
<clipPath id="clip0_924_16">
<rect width="163" height="30" fill="white"/>
</clipPath>
</defs>
</svg>
